<?xml version="1.0" standalone="no"?>
<!DOCTYPE svg PUBLIC "-//W3C//DTD SVG 20010904//EN"
 "http://www.w3.org/TR/2001/REC-SVG-20010904/DTD/svg10.dtd">
<svg version="1.0" xmlns="http://www.w3.org/2000/svg"
 width="1446.000000pt" height="1446.000000pt" viewBox="0 0 1446.000000 1446.000000"
 preserveAspectRatio="xMidYMid meet">
<metadata>
Created by potrace 1.11, written by Peter Selinger 2001-2013
</metadata>
<g transform="translate(0.000000,1446.000000) scale(0.100000,-0.100000)"
fill="#000000" stroke="none">
<path d="M7008 14235 c-2 -1 -57 -5 -123 -9 -66 -3 -142 -8 -170 -11 -124 -12
-162 -16 -185 -20 -14 -2 -47 -6 -75 -10 -46 -5 -214 -32 -260 -41 -11 -2 -33
-7 -50 -9 -301 -53 -809 -205 -1100 -330 -598 -258 -1034 -524 -1505 -918 -69
-57 -147 -126 -175 -152 -360 -343 -552 -559 -799 -905 -87 -121 -296 -442
-296 -454 0 -2 -25 -48 -56 -102 -158 -278 -361 -748 -446 -1032 -11 -37 -26
-89 -34 -117 -20 -67 -73 -264 -78 -289 -3 -12 -16 -74 -30 -139 -15 -65 -29
-134 -32 -155 -3 -20 -7 -44 -9 -52 -2 -8 -7 -35 -10 -60 -3 -25 -8 -52 -10
-60 -2 -8 -9 -55 -15 -105 -6 -49 -13 -108 -15 -130 -23 -187 -30 -340 -30
-635 0 -249 8 -483 19 -535 2 -11 7 -56 10 -100 4 -44 9 -87 11 -95 2 -8 6
-37 10 -65 9 -77 43 -275 66 -383 11 -53 22 -107 25 -118 44 -219 210 -728
312 -954 11 -25 34 -79 52 -120 66 -154 213 -430 328 -620 42 -68 242 -368
263 -394 5 -6 39 -51 76 -100 203 -265 487 -573 733 -792 30 -27 57 -51 60
-54 3 -3 32 -27 65 -55 33 -27 62 -52 65 -55 8 -8 88 -70 215 -166 356 -267
800 -520 1230 -699 401 -167 960 -322 1335 -370 25 -3 56 -8 70 -10 40 -7 196
-26 255 -30 174 -15 315 -20 530 -20 308 0 526 13 755 45 36 5 88 12 115 15
28 4 57 8 65 10 8 3 32 7 54 11 21 3 48 8 60 10 11 2 36 7 55 10 35 6 101 20
229 50 37 8 76 17 86 19 154 34 632 194 791 264 323 144 457 211 695 348 223
128 628 412 766 538 6 6 32 28 58 49 136 112 436 407 572 561 277 314 540 688
744 1060 39 69 180 352 180 359 0 3 13 33 29 68 16 35 43 99 61 143 18 44 38
94 45 110 54 126 186 549 220 705 2 8 10 44 19 80 15 65 20 90 31 145 35 186
50 271 60 360 4 28 8 60 10 72 2 12 7 57 10 100 4 43 9 89 11 103 9 68 18 316
18 495 0 281 -9 444 -40 715 -8 69 -22 161 -30 205 -2 11 -7 43 -10 70 -4 28
-8 53 -10 56 -2 4 -6 24 -10 45 -3 22 -9 55 -14 74 -5 19 -11 47 -14 63 -3 15
-7 35 -10 45 -3 9 -7 28 -10 42 -22 124 -160 581 -214 710 -6 14 -29 70 -50
125 -89 226 -239 535 -352 725 -360 607 -743 1063 -1285 1529 -72 62 -184 151
-189 151 -4 0 -19 11 -34 24 -68 61 -436 306 -602 401 -405 232 -892 438
-1305 550 -93 25 -248 65 -270 69 -11 2 -74 15 -140 29 -66 14 -138 28 -160
31 -22 4 -69 11 -105 17 -99 15 -111 17 -165 23 -27 4 -68 9 -90 11 -22 3 -72
7 -110 10 -39 3 -88 8 -110 10 -43 6 -632 15 -637 10z"/>
<path d="M1377 2304 c-1 -1 -24 -4 -52 -7 -60 -6 -196 -40 -251 -62 -190 -78
-338 -191 -460 -354 -105 -139 -173 -298 -201 -476 -8 -49 -8 -270 -1 -305 3
-14 9 -43 13 -65 19 -107 113 -323 171 -390 13 -16 24 -31 24 -35 0 -19 178
-183 250 -230 122 -79 199 -114 335 -152 l80 -23 5895 -2 c6230 -3 5997 -5
6107 38 15 6 35 12 44 14 30 6 123 49 184 84 281 162 480 454 522 766 9 65 9
225 1 295 -26 208 -141 434 -301 595 -168 167 -354 261 -597 301 -35 6 -11756
14 -11763 8z"/>
</g>
</svg>
